<svg width="505" height="102" viewBox="0 0 505 102" fill="none" xmlns="http://www.w3.org/2000/svg">
<rect x="185.768" y="1.80357" width="314.964" height="97.8214" rx="48.9107" stroke="#174EA6" stroke-width="3.60714"/>
<path d="M231.861 71.2143V29.2403H246.823C250.088 29.2403 252.794 29.8346 254.939 31.0233C257.084 32.2121 258.69 33.838 259.755 35.9012C260.821 37.9507 261.354 40.2598 261.354 42.8285C261.354 45.4109 260.814 47.7337 259.735 49.7969C258.669 51.8464 257.057 53.4723 254.898 54.6747C252.753 55.8634 250.054 56.4578 246.802 56.4578H236.514V51.0881H246.228C248.292 51.0881 249.965 50.7328 251.25 50.0223C252.534 49.2982 253.477 48.3144 254.078 47.071C254.679 45.8277 254.98 44.4135 254.98 42.8285C254.98 41.2436 254.679 39.8363 254.078 38.6065C253.477 37.3768 252.527 36.4136 251.229 35.7167C249.945 35.0199 248.251 34.6715 246.147 34.6715H238.194V71.2143H231.861ZM265.401 71.2143V39.7338H271.324V44.7346H271.652C272.226 43.0403 273.237 41.7081 274.685 40.738C276.147 39.7543 277.8 39.2624 279.645 39.2624C280.027 39.2624 280.478 39.2761 280.997 39.3034C281.53 39.3307 281.947 39.3649 282.248 39.4059V45.2675C282.002 45.1991 281.564 45.124 280.936 45.042C280.307 44.9464 279.679 44.8985 279.05 44.8985C277.602 44.8985 276.311 45.206 275.177 45.8208C274.056 46.422 273.168 47.2623 272.512 48.3417C271.857 49.4075 271.529 50.6235 271.529 51.9899V71.2143H265.401ZM297.106 71.8496C294.004 71.8496 291.333 71.187 289.092 69.8616C286.865 68.5226 285.143 66.6439 283.927 64.2255C282.725 61.7934 282.124 58.9445 282.124 55.679C282.124 52.4544 282.725 49.6124 283.927 47.153C285.143 44.6936 286.838 42.7739 289.01 41.3939C291.196 40.0139 293.751 39.3239 296.675 39.3239C298.451 39.3239 300.173 39.6176 301.84 40.2052C303.507 40.7927 305.003 41.715 306.328 42.972C307.654 44.229 308.699 45.8618 309.464 47.8703C310.229 49.8652 310.612 52.2905 310.612 55.1461V57.3186H285.587V52.7277H304.607C304.607 51.1154 304.279 49.6876 303.623 48.4442C302.967 47.1872 302.045 46.1966 300.856 45.4724C299.681 44.7483 298.301 44.3862 296.716 44.3862C294.995 44.3862 293.492 44.8097 292.207 45.6569C290.937 46.4903 289.953 47.5834 289.256 48.9361C288.573 50.2751 288.231 51.7303 288.231 53.3016V56.8882C288.231 58.9924 288.6 60.7823 289.338 62.2579C290.089 63.7336 291.135 64.8608 292.474 65.6396C293.813 66.4048 295.377 66.7873 297.167 66.7873C298.328 66.7873 299.387 66.6234 300.344 66.2955C301.3 65.9539 302.127 65.4483 302.824 64.7788C303.521 64.1093 304.053 63.2827 304.422 62.2989L310.222 63.3442C309.758 65.0521 308.924 66.5482 307.722 67.8326C306.533 69.1033 305.037 70.0939 303.234 70.8044C301.444 71.5012 299.401 71.8496 297.106 71.8496ZM314.525 83.0195V39.7338H320.51V44.8371H321.022C321.378 44.1812 321.89 43.4229 322.56 42.5621C323.229 41.7013 324.158 40.9498 325.347 40.3076C326.536 39.6518 328.107 39.3239 330.061 39.3239C332.602 39.3239 334.87 39.9661 336.865 41.2504C338.86 42.5348 340.424 44.3862 341.559 46.8046C342.706 49.223 343.28 52.1333 343.28 55.5355C343.28 58.9377 342.713 61.8549 341.579 64.2869C340.445 66.7054 338.887 68.5704 336.906 69.8821C334.925 71.1801 332.664 71.8291 330.122 71.8291C328.209 71.8291 326.645 71.5081 325.429 70.8659C324.226 70.2237 323.284 69.4722 322.601 68.6114C321.917 67.7506 321.391 66.9855 321.022 66.316H320.653V83.0195H314.525ZM320.531 55.474C320.531 57.6875 320.852 59.6277 321.494 61.2947C322.136 62.9616 323.065 64.2664 324.281 65.2092C325.497 66.1383 326.986 66.6029 328.749 66.6029C330.58 66.6029 332.11 66.1178 333.34 65.1477C334.57 64.164 335.499 62.8318 336.127 61.1512C336.769 59.4706 337.091 57.5782 337.091 55.474C337.091 53.3972 336.776 51.5321 336.148 49.8789C335.533 48.2256 334.604 46.9207 333.36 45.9643C332.131 45.0079 330.594 44.5296 328.749 44.5296C326.973 44.5296 325.47 44.9874 324.24 45.9028C323.024 46.8183 322.102 48.0958 321.473 49.7354C320.845 51.375 320.531 53.2879 320.531 55.474ZM356.422 71.9111C354.427 71.9111 352.623 71.5422 351.011 70.8044C349.399 70.0529 348.121 68.9667 347.178 67.5457C346.249 66.1247 345.785 64.3826 345.785 62.3194C345.785 60.5432 346.126 59.0812 346.809 57.9335C347.493 56.7857 348.415 55.8771 349.576 55.2076C350.738 54.5381 352.036 54.0325 353.47 53.691C354.905 53.3494 356.367 53.0898 357.856 52.9121C359.742 52.6935 361.272 52.5159 362.447 52.3793C363.622 52.229 364.476 51.9899 365.009 51.6619C365.542 51.334 365.808 50.8011 365.808 50.0633V49.9199C365.808 48.1299 365.303 46.7431 364.292 45.7593C363.294 44.7756 361.805 44.2837 359.824 44.2837C357.761 44.2837 356.135 44.7414 354.946 45.6569C353.771 46.5587 352.958 47.5629 352.507 48.6697L346.748 47.358C347.431 45.4451 348.428 43.9011 349.74 42.7261C351.066 41.5373 352.589 40.6766 354.311 40.1437C356.032 39.5971 357.843 39.3239 359.742 39.3239C360.999 39.3239 362.331 39.4742 363.738 39.7748C365.159 40.0617 366.485 40.5946 367.714 41.3734C368.958 42.1522 369.976 43.2658 370.768 44.7141C371.561 46.1488 371.957 48.0138 371.957 50.3093V71.2143H365.972V66.9103H365.726C365.33 67.7028 364.736 68.4816 363.943 69.2468C363.151 70.0119 362.133 70.6473 360.89 71.1528C359.646 71.6584 358.157 71.9111 356.422 71.9111ZM357.754 66.9923C359.448 66.9923 360.896 66.6575 362.099 65.988C363.315 65.3185 364.237 64.4441 364.866 63.3647C365.508 62.2716 365.829 61.1034 365.829 59.86V55.802C365.61 56.0206 365.187 56.2255 364.558 56.4168C363.943 56.5944 363.24 56.7516 362.447 56.8882C361.655 57.0112 360.883 57.1273 360.131 57.2366C359.38 57.3323 358.751 57.4142 358.246 57.4826C357.057 57.6329 355.971 57.8856 354.987 58.2409C354.017 58.5961 353.238 59.1085 352.65 59.778C352.077 60.4339 351.79 61.3083 351.79 62.4014C351.79 63.918 352.35 65.0658 353.47 65.8446C354.591 66.6097 356.019 66.9923 357.754 66.9923ZM377.233 71.2143V39.7338H383.156V44.7346H383.484C384.058 43.0403 385.069 41.7081 386.518 40.738C387.98 39.7543 389.633 39.2624 391.477 39.2624C391.86 39.2624 392.311 39.2761 392.83 39.3034C393.363 39.3307 393.78 39.3649 394.08 39.4059V45.2675C393.834 45.1991 393.397 45.124 392.769 45.042C392.14 44.9464 391.512 44.8985 390.883 44.8985C389.435 44.8985 388.144 45.206 387.01 45.8208C385.889 46.422 385.001 47.2623 384.345 48.3417C383.689 49.4075 383.361 50.6235 383.361 51.9899V71.2143H377.233ZM408.938 71.8496C405.837 71.8496 403.165 71.187 400.925 69.8616C398.698 68.5226 396.976 66.6439 395.76 64.2255C394.558 61.7934 393.956 58.9445 393.956 55.679C393.956 52.4544 394.558 49.6124 395.76 47.153C396.976 44.6936 398.67 42.7739 400.843 41.3939C403.029 40.0139 405.584 39.3239 408.508 39.3239C410.284 39.3239 412.006 39.6176 413.673 40.2052C415.34 40.7927 416.836 41.715 418.161 42.972C419.486 44.229 420.532 45.8618 421.297 47.8703C422.062 49.8652 422.445 52.2905 422.445 55.1461V57.3186H397.42V52.7277H416.44C416.44 51.1154 416.112 49.6876 415.456 48.4442C414.8 47.1872 413.878 46.1966 412.689 45.4724C411.514 44.7483 410.134 44.3862 408.549 44.3862C406.827 44.3862 405.324 44.8097 404.04 45.6569C402.769 46.4903 401.785 47.5834 401.089 48.9361C400.405 50.2751 400.064 51.7303 400.064 53.3016V56.8882C400.064 58.9924 400.433 60.7823 401.171 62.2579C401.922 63.7336 402.967 64.8608 404.306 65.6396C405.645 66.4048 407.21 66.7873 409 66.7873C410.161 66.7873 411.22 66.6234 412.177 66.2955C413.133 65.9539 413.96 65.4483 414.656 64.7788C415.353 64.1093 415.886 63.2827 416.255 62.2989L422.055 63.3442C421.591 65.0521 420.757 66.5482 419.555 67.8326C418.366 69.1033 416.87 70.0939 415.066 70.8044C413.276 71.5012 411.234 71.8496 408.938 71.8496ZM438.143 71.8291C435.601 71.8291 433.333 71.1801 431.338 69.8821C429.357 68.5704 427.8 66.7054 426.666 64.2869C425.545 61.8549 424.985 58.9377 424.985 55.5355C424.985 52.1333 425.552 49.223 426.686 46.8046C427.834 44.3862 429.405 42.5348 431.4 41.2504C433.395 39.9661 435.656 39.3239 438.184 39.3239C440.138 39.3239 441.709 39.6518 442.898 40.3076C444.1 40.9498 445.029 41.7013 445.685 42.5621C446.355 43.4229 446.874 44.1812 447.243 44.8371H447.612V29.2403H453.74V71.2143H447.755V66.316H447.243C446.874 66.9855 446.341 67.7506 445.644 68.6114C444.961 69.4722 444.018 70.2237 442.816 70.8659C441.613 71.5081 440.056 71.8291 438.143 71.8291ZM439.496 66.6029C441.258 66.6029 442.747 66.1383 443.963 65.2092C445.193 64.2664 446.122 62.9616 446.751 61.2947C447.393 59.6277 447.714 57.6875 447.714 55.474C447.714 53.2879 447.4 51.375 446.771 49.7354C446.143 48.0958 445.22 46.8183 444.004 45.9028C442.788 44.9874 441.285 44.5296 439.496 44.5296C437.651 44.5296 436.114 45.0079 434.884 45.9643C433.654 46.9207 432.725 48.2256 432.097 49.8789C431.482 51.5321 431.174 53.3972 431.174 55.474C431.174 57.5782 431.489 59.4706 432.117 61.1512C432.746 62.8318 433.675 64.164 434.905 65.1477C436.148 66.1178 437.678 66.6029 439.496 66.6029Z" fill="#174EA6"/>
<rect x="1.80357" y="1.80357" width="214.964" height="97.8214" rx="48.9107" fill="#174EA6"/>
<rect x="1.80357" y="1.80357" width="214.964" height="97.8214" rx="48.9107" stroke="#174EA6" stroke-width="3.60714"/>
<path d="M82.7594 42.89H76.3649C76.119 41.5237 75.6612 40.3213 74.9917 39.2829C74.3222 38.2445 73.5024 37.3632 72.5323 36.639C71.5622 35.9148 70.476 35.3683 69.2736 34.9994C68.0849 34.6305 66.821 34.446 65.482 34.446C63.0636 34.446 60.8979 35.0541 58.985 36.2701C57.0858 37.4861 55.5828 39.2692 54.4761 41.6193C53.383 43.9694 52.8365 46.8388 52.8365 50.2273C52.8365 53.6431 53.383 56.5261 54.4761 58.8762C55.5828 61.2263 57.0927 63.0026 59.0055 64.205C60.9184 65.4073 63.0704 66.0085 65.4615 66.0085C66.7868 66.0085 68.0439 65.8309 69.2326 65.4757C70.435 65.1067 71.5212 64.567 72.4913 63.8565C73.4614 63.146 74.2812 62.2784 74.9507 61.2537C75.6339 60.2152 76.1053 59.0265 76.3649 57.6875L82.7594 57.708C82.4178 59.7712 81.7551 61.6704 80.7714 63.4057C79.8013 65.1272 78.5511 66.6166 77.0207 67.8736C75.5041 69.117 73.7689 70.0802 71.815 70.7634C69.8611 71.4466 67.7296 71.7882 65.4205 71.7882C61.786 71.7882 58.5478 70.9274 55.7058 69.2058C52.8638 67.4705 50.623 64.9906 48.9834 61.766C47.3575 58.5415 46.5445 54.6952 46.5445 50.2273C46.5445 45.7457 47.3643 41.8994 49.0039 38.6885C50.6435 35.464 52.8843 32.9909 55.7263 31.2693C58.5683 29.534 61.7997 28.6664 65.4205 28.6664C67.6476 28.6664 69.7245 28.9875 71.651 29.6297C73.5912 30.2582 75.3333 31.1873 76.8773 32.417C78.4213 33.6331 79.6988 35.1224 80.7099 36.885C81.721 38.6339 82.4041 40.6356 82.7594 42.89ZM96.1212 71.9111C94.1263 71.9111 92.3228 71.5422 90.7105 70.8044C89.0982 70.0529 87.8207 68.9667 86.8779 67.5457C85.9488 66.1247 85.4842 64.3826 85.4842 62.3194C85.4842 60.5432 85.8258 59.0812 86.509 57.9335C87.1921 56.7857 88.1144 55.8771 89.2758 55.2076C90.4372 54.5381 91.7352 54.0325 93.1699 53.691C94.6045 53.3494 96.0665 53.0898 97.5558 52.9121C99.4414 52.6935 100.972 52.5159 102.147 52.3793C103.322 52.229 104.176 51.9899 104.709 51.6619C105.242 51.334 105.508 50.8011 105.508 50.0633V49.9199C105.508 48.1299 105.002 46.7431 103.991 45.7593C102.994 44.7756 101.505 44.2837 99.5234 44.2837C97.4602 44.2837 95.8343 44.7414 94.6455 45.6569C93.4705 46.5587 92.6575 47.5629 92.2066 48.6697L86.4475 47.358C87.1307 45.4451 88.1281 43.9011 89.4398 42.7261C90.7651 41.5373 92.2886 40.6766 94.0102 40.1437C95.7318 39.5971 97.5422 39.3239 99.4414 39.3239C100.698 39.3239 102.031 39.4742 103.438 39.7748C104.859 40.0617 106.184 40.5946 107.414 41.3734C108.657 42.1522 109.675 43.2658 110.468 44.7141C111.26 46.1488 111.656 48.0138 111.656 50.3093V71.2143H105.672V66.9103H105.426C105.03 67.7028 104.435 68.4816 103.643 69.2468C102.85 70.0119 101.832 70.6473 100.589 71.1528C99.3457 71.6584 97.8564 71.9111 96.1212 71.9111ZM97.4534 66.9923C99.1476 66.9923 100.596 66.6575 101.798 65.988C103.014 65.3185 103.937 64.4441 104.565 63.3647C105.207 62.2716 105.528 61.1034 105.528 59.86V55.802C105.31 56.0206 104.886 56.2255 104.258 56.4168C103.643 56.5944 102.939 56.7516 102.147 56.8882C101.354 57.0112 100.582 57.1273 99.8308 57.2366C99.0793 57.3323 98.4508 57.4142 97.9452 57.4826C96.7565 57.6329 95.6703 57.8856 94.6865 58.2409C93.7164 58.5961 92.9376 59.1085 92.3501 59.778C91.7762 60.4339 91.4893 61.3083 91.4893 62.4014C91.4893 63.918 92.0495 65.0658 93.1699 65.8446C94.2903 66.6097 95.7181 66.9923 97.4534 66.9923ZM140.523 47.4194L134.969 48.4032C134.736 47.6927 134.367 47.0164 133.862 46.3742C133.37 45.732 132.701 45.206 131.853 44.7961C131.006 44.3862 129.947 44.1812 128.677 44.1812C126.941 44.1812 125.493 44.5706 124.332 45.3494C123.17 46.1146 122.59 47.1052 122.59 48.3212C122.59 49.3733 122.979 50.2205 123.758 50.8626C124.537 51.5048 125.794 52.0309 127.529 52.4408L132.53 53.5885C135.426 54.258 137.585 55.2896 139.006 56.6832C140.427 58.0769 141.138 59.8873 141.138 62.1145C141.138 64 140.591 65.6806 139.498 67.1563C138.419 68.6182 136.909 69.766 134.969 70.5994C133.042 71.4329 130.808 71.8496 128.267 71.8496C124.742 71.8496 121.865 71.0982 119.638 69.5952C117.411 68.0785 116.045 65.9266 115.539 63.1392L121.462 62.2374C121.831 63.7814 122.59 64.9496 123.737 65.7421C124.885 66.5209 126.381 66.9103 128.226 66.9103C130.234 66.9103 131.84 66.4936 133.042 65.6601C134.245 64.813 134.846 63.7814 134.846 62.5654C134.846 61.5816 134.477 60.7549 133.739 60.0854C133.015 59.4159 131.901 58.9104 130.398 58.5688L125.07 57.4006C122.132 56.7311 119.959 55.6653 118.552 54.2033C117.158 52.7414 116.462 50.89 116.462 48.6492C116.462 46.7909 116.981 45.165 118.019 43.7713C119.058 42.3776 120.492 41.2914 122.323 40.5126C124.154 39.7201 126.251 39.3239 128.615 39.3239C132.017 39.3239 134.695 40.0617 136.649 41.5373C138.603 42.9993 139.894 44.96 140.523 47.4194ZM158.558 71.8496C155.456 71.8496 152.785 71.187 150.544 69.8616C148.317 68.5226 146.595 66.6439 145.379 64.2255C144.177 61.7934 143.576 58.9445 143.576 55.679C143.576 52.4544 144.177 49.6124 145.379 47.153C146.595 44.6936 148.289 42.7739 150.462 41.3939C152.648 40.0139 155.203 39.3239 158.127 39.3239C159.903 39.3239 161.625 39.6176 163.292 40.2052C164.959 40.7927 166.455 41.715 167.78 42.972C169.106 44.229 170.151 45.8618 170.916 47.8703C171.681 49.8652 172.064 52.2905 172.064 55.1461V57.3186H147.039V52.7277H166.059C166.059 51.1154 165.731 49.6876 165.075 48.4442C164.419 47.1872 163.497 46.1966 162.308 45.4724C161.133 44.7483 159.753 44.3862 158.168 44.3862C156.447 44.3862 154.944 44.8097 153.659 45.6569C152.389 46.4903 151.405 47.5834 150.708 48.9361C150.025 50.2751 149.683 51.7303 149.683 53.3016V56.8882C149.683 58.9924 150.052 60.7823 150.79 62.2579C151.541 63.7336 152.587 64.8608 153.926 65.6396C155.265 66.4048 156.829 66.7873 158.619 66.7873C159.78 66.7873 160.839 66.6234 161.796 66.2955C162.752 65.9539 163.579 65.4483 164.276 64.7788C164.973 64.1093 165.505 63.2827 165.874 62.2989L171.674 63.3442C171.21 65.0521 170.376 66.5482 169.174 67.8326C167.985 69.1033 166.489 70.0939 164.686 70.8044C162.896 71.5012 160.853 71.8496 158.558 71.8496Z" fill="white"/>
</svg>
